<svg version="1.1" id="Layer_1" xmlns="http://www.w3.org/2000/svg" xmlns:xlink="http://www.w3.org/1999/xlink" x="0px" y="0px"
	 width="100%" viewBox="0 0 368 624" enable-background="new 0 0 368 624" xml:space="preserve">
<path fill="currentColor" opacity="1.000000" stroke="none"
	d="
M189.431427,533.200073 
	C186.214966,554.105347 177.740341,571.249512 158.346405,580.880493 
	C133.505920,593.216248 101.081879,587.226196 83.965569,567.574463 
	C66.503914,547.526245 69.639999,517.304199 90.614349,503.500488 
	C102.284775,495.819916 114.554779,496.061188 125.561569,504.187592 
	C136.467194,512.239380 141.341324,527.112488 137.412125,540.348999 
	C133.975906,551.924744 123.114975,560.239075 110.203590,561.258850 
	C108.450493,561.397339 106.532600,560.759033 104.635422,562.332092 
	C106.255249,567.454407 110.552444,569.750366 115.022217,571.336670 
	C132.630127,577.585571 154.685287,573.985779 167.147110,556.028381 
	C173.430695,546.973877 176.107010,536.762756 175.899490,525.827698 
	C175.583344,509.169220 173.708221,492.611053 172.436829,476.014313 
	C172.208023,473.027313 171.704132,470.020660 171.869995,467.053436 
	C172.137543,462.267029 170.006256,461.006104 165.556122,461.391510 
	C154.193436,462.375702 142.875305,461.476654 131.822937,458.819855 
	C102.133675,451.683044 80.793930,433.592773 66.509384,407.114105 
	C42.981125,363.500702 48.832829,311.381775 80.901497,272.457092 
	C95.299377,254.981033 112.291504,240.321960 129.712402,226.068161 
	C135.513687,221.321548 141.026001,216.191956 147.062851,211.773651 
	C150.976425,208.909348 151.824478,205.833847 151.419022,201.150055 
	C149.476669,178.712204 148.622833,156.170364 152.712631,133.918793 
	C157.753952,106.490311 168.169495,81.264633 186.537125,59.814713 
	C190.901596,54.717834 195.974060,50.461483 202.063675,47.440540 
	C210.935638,43.039303 214.611359,43.897999 220.180054,51.966492 
	C225.085129,59.073505 227.931015,67.106979 230.017105,75.335045 
	C236.722107,101.781372 238.711777,128.611816 233.964706,155.546524 
	C229.274582,182.158096 216.369858,204.898071 198.708801,225.087860 
	C191.565765,233.253601 183.938370,240.928802 175.304886,247.512711 
	C171.481491,250.428436 170.202637,253.593826 170.761307,258.609283 
	C172.253189,272.002716 172.995987,285.482513 173.884811,298.937988 
	C174.091339,302.064331 174.889893,303.789398 178.469666,303.960388 
	C226.131485,306.236755 250.985275,352.331360 244.019913,391.083252 
	C242.565445,399.175293 240.518188,406.988495 236.462997,414.945160 
	C239.981247,413.889557 241.964233,411.620026 244.091980,409.760864 
	C261.969299,394.140076 276.018555,375.853546 283.074402,352.823822 
	C283.898376,350.134369 284.311340,347.311249 284.809357,344.531189 
	C286.191345,336.816437 283.705109,330.687225 277.883362,325.346802 
	C267.584717,315.899628 256.918335,306.782135 248.525925,295.431427 
	C243.351303,288.432739 239.711838,280.960144 239.810318,272.009125 
	C239.925415,261.548218 245.886673,252.814926 254.898529,250.117874 
	C263.322388,247.596771 273.530701,251.830658 279.254639,260.032227 
	C280.699219,262.102173 281.167633,265.859406 284.349457,265.520172 
	C287.926392,265.138824 287.379669,261.207275 288.172791,258.682831 
	C291.558960,247.905228 301.738647,240.619949 311.863403,241.929932 
	C321.858124,243.223083 330.464722,253.440918 331.373444,264.389923 
	C332.344116,276.084686 327.266022,285.788422 321.805389,295.361481 
	C317.020020,303.750641 311.919647,311.965057 306.789551,320.150787 
	C303.615356,325.215637 301.682190,330.624023 301.356262,336.565094 
	C299.952698,362.150146 288.989349,383.754456 272.775665,402.784210 
	C250.715210,428.676270 223.039215,446.292664 190.374832,455.877655 
	C186.328522,457.064941 185.413071,458.900421 185.768417,463.024017 
	C187.397461,481.928986 188.648804,500.867157 189.942902,519.799805 
	C190.237991,524.116943 190.266266,528.463135 189.431427,533.200073 
M137.453644,275.976166 
	C120.970581,288.824463 105.467049,302.635956 93.758942,320.206299 
	C80.767769,339.702148 73.573814,361.009155 76.842766,384.472321 
	C82.792480,427.176910 126.333649,451.782257 165.356171,447.706146 
	C168.527588,447.374908 170.282700,445.992950 169.830826,442.527222 
	C169.616135,440.880737 169.677597,439.200165 169.560059,437.538849 
	C167.986267,415.290619 166.554520,393.030731 164.745148,370.801605 
	C164.049820,362.259064 164.198273,353.600800 162.446075,344.842926 
	C152.040955,346.506958 144.664764,352.191010 138.363693,359.537628 
	C124.101448,376.166382 124.624466,396.697571 139.617981,409.997864 
	C141.480789,411.650299 143.574417,413.043427 145.569504,414.545563 
	C147.910477,416.308167 150.416168,418.285553 148.696548,421.523010 
	C146.726318,425.232239 143.545334,423.517273 140.805496,422.394379 
	C136.744843,420.730194 133.303635,418.008575 130.112442,415.110107 
	C113.656166,400.163300 105.813042,382.038513 110.422791,359.626465 
	C115.693275,334.001984 131.312607,317.086365 155.164703,307.383057 
	C158.481476,306.033783 159.802155,304.446106 159.433670,300.734406 
	C158.381699,290.138519 157.734421,279.502808 156.883560,268.886322 
	C156.742935,267.131592 157.268616,265.181213 155.093506,263.146606 
	C149.476257,267.230316 143.752411,271.391541 137.453644,275.976166 
M175.534683,131.037308 
	C166.089142,151.432922 162.841171,172.658066 166.365677,194.919006 
	C168.983658,194.923248 170.353775,193.593719 171.844452,192.603378 
	C190.801773,180.009323 204.238068,162.625977 214.419342,142.622818 
	C219.115860,133.395584 222.616608,123.626282 221.725494,112.930779 
	C221.142685,105.935524 218.780441,99.773087 211.901108,96.735336 
	C205.206284,93.779053 200.545502,98.308998 195.817169,101.956314 
	C194.377914,103.066521 193.123627,104.437691 191.881943,105.779388 
	C185.144501,113.059570 180.189697,121.507019 175.534683,131.037308 
M187.134949,441.517456 
	C192.783401,439.804443 198.084152,437.301971 202.375183,433.243774 
	C216.775665,419.624695 222.939224,402.935822 218.363800,383.503693 
	C213.903595,364.560913 201.277115,352.339447 183.147354,345.784210 
	C178.289917,344.027832 177.101883,345.418365 177.545532,350.878662 
	C178.825241,366.629669 180.030731,382.387299 181.147949,398.150635 
	C182.018188,410.429260 182.581406,422.731293 183.604004,434.996002 
	C183.791458,437.244110 182.551208,440.672211 187.134949,441.517456 
z"/>
</svg>